<svg xmlns="http://www.w3.org/2000/svg" xmlns:xlink="http://www.w3.org/1999/xlink" viewBox="0 0 957.22 442.02"><defs><style>.cls-1{fill:url(#linear-gradient);}.cls-2{fill:url(#linear-gradient-2);}.cls-3{fill:url(#linear-gradient-3);}.cls-4{fill:url(#linear-gradient-4);}.cls-5{fill:url(#linear-gradient-5);}.cls-6{fill:url(#linear-gradient-6);}.cls-7{fill:url(#linear-gradient-7);}.cls-8{fill:url(#linear-gradient-8);}.cls-9{fill:url(#linear-gradient-9);}.cls-10{fill:url(#linear-gradient-10);}.cls-11{fill:url(#linear-gradient-11);}.cls-12{fill:url(#linear-gradient-12);}.cls-13{fill:url(#linear-gradient-13);}.cls-14{fill:url(#linear-gradient-14);}.cls-15{fill:url(#linear-gradient-15);}</style><linearGradient id="linear-gradient" x1="-13.52" y1="390.33" x2="720.01" y2="12.24" gradientUnits="userSpaceOnUse"><stop offset="0" stop-color="#ffeb3b"/><stop offset="1" stop-color="#795548"/></linearGradient><linearGradient id="linear-gradient-2" x1="-60" y1="300.16" x2="673.53" y2="-77.93" xlink:href="#linear-gradient"/><linearGradient id="linear-gradient-3" x1="3.74" y1="423.82" x2="737.27" y2="45.73" xlink:href="#linear-gradient"/><linearGradient id="linear-gradient-4" x1="-3.77" y1="409.25" x2="729.76" y2="31.16" xlink:href="#linear-gradient"/><linearGradient id="linear-gradient-5" x1="67.03" y1="546.6" x2="800.55" y2="168.51" xlink:href="#linear-gradient"/><linearGradient id="linear-gradient-6" x1="-21.95" y1="373.99" x2="711.58" y2="-4.1" xlink:href="#linear-gradient"/><linearGradient id="linear-gradient-7" x1="-23.61" y1="370.75" x2="709.92" y2="-7.34" xlink:href="#linear-gradient"/><linearGradient id="linear-gradient-8" x1="70.73" y1="553.79" x2="804.26" y2="175.7" xlink:href="#linear-gradient"/><linearGradient id="linear-gradient-9" x1="125.9" y1="660.81" x2="859.43" y2="282.73" xlink:href="#linear-gradient"/><linearGradient id="linear-gradient-10" x1="29.03" y1="472.89" x2="762.56" y2="94.8" xlink:href="#linear-gradient"/><linearGradient id="linear-gradient-11" x1="138.52" y1="685.31" x2="872.05" y2="307.22" xlink:href="#linear-gradient"/><linearGradient id="linear-gradient-12" x1="23.98" y1="463.08" x2="757.51" y2="84.99" xlink:href="#linear-gradient"/><linearGradient id="linear-gradient-13" x1="94.12" y1="599.16" x2="827.65" y2="221.07" xlink:href="#linear-gradient"/><linearGradient id="linear-gradient-14" x1="152.23" y1="711.89" x2="885.75" y2="333.81" xlink:href="#linear-gradient"/><linearGradient id="linear-gradient-15" x1="-41.55" y1="335.94" x2="691.97" y2="-42.15" xlink:href="#linear-gradient"/></defs><g id="Layer_2" data-name="Layer 2"><g id="Layer_1-2" data-name="Layer 1"><path class="cls-1" d="M733.1,62.18V139c0,17.3-14,26.4-44.12,26.4h-2.09c-21.71,0-32.22-7.92-32.22-20.24v-83H610.55v82.14c0,12.9-10.15,21.12-28.36,21.12H537.73c15.75-14.38,27.66-35.2,23.8-56.32-4.55-27.28-29.76-51-74.93-51s-70.38,23.76-75.63,51c-3.5,21.12,8.06,41.94,24.16,56.32H351.8v-103H279.66c-44.81,0-70.73,22.58-70.73,69.22,0,49.87,40.27,67.47,70.73,67.47H447a161.91,161.91,0,0,0,39.57-4.69,158,158,0,0,0,39.57,4.69h56c21,0,39.22-4.69,51.82-14.37,13.66,9.09,31.17,14.37,52.88,14.37H689q5.38,0,10.52-.29c48.07-2.73,77.37-24.39,77.37-58.08V62.18ZM308,165.44h-25.9c-18.22,0-29.41-17-29.41-33.74,0-14.66,5.25-37,29.41-37H308Zm178.58-7.92c-20.66-10-34.66-29.34-31.17-46.94,2.1-12.61,14.71-22,31.17-22,15.76,0,28.36,9.68,30.81,22C521.27,128.48,507.26,147.54,486.6,157.52Z"/><path class="cls-2" d="M464.89,0V36.66h43.77V0Z"/><path class="cls-3" d="M618.61,0V36.66h35.72V0ZM689,199.17H699.5v-.29Q694.37,199.17,689,199.17ZM566.09,0V36.66h35.72V0Z"/><path class="cls-4" d="M732.75,0V36.66h43.78V0Z"/><path class="cls-5" d="M96.41,331.28c-20.91-.48-41.83-.3-62.55-3.73A87.47,87.47,0,0,1,19.8,324c-16-5.52-21.39-14.33-19.41-31.21C2,279,10.51,271.31,26.49,270c19.64-1.63,38.69,2.74,57.38,7.68,27.92,7.39,56.3,11.64,84.88,15,10.95,1.3,24.77-9.27,26.22-20.32,1.69-12.95,4-25.75,9.25-37.81,6.64-15.2,10.14-17.41,27-16.93,37.26,1.07,74.42,4,111.52,7.37q109.49,10.05,218.91,20.8C625.85,252.06,690,258.62,754.22,265c3.62.36,7.24.71,10.86.94,12.28.77,13.86,2.25,15.6,14.88,1.83,13.25,1.62,26.6,2,39.92.14,5.64,3.18,8.29,7.27,12.42,12,12.19,25.67,7.56,38.83,7.05,30-1.14,59.92-3.21,89.87.1a119.29,119.29,0,0,1,14.33,2.38c16.47,3.9,25,15.39,24.25,32.4-.57,13.32-9.34,21.86-24.34,23.35-18,1.78-35.66-1.39-53.26-4.45-24.47-4.25-48.89-8.76-73.61-11.25-6.45-.65-12,2.05-18,3.75-15.76,4.49-13.59,17.74-18.17,27.71-1.25,2.71-1.67,5.8-2.48,8.72-4.62,16.77-7.86,19.65-25.57,19-36.64-1.39-73-6.5-109.49-9.75-76-6.76-152-14-228-21Q306.05,402,207.9,392.92c-8.5-.78-13-5.79-15.53-13.19A77.37,77.37,0,0,1,188.84,351c.36-7-2.62-10.49-8.71-12.85-12-4.69-24.66-6.34-37.37-6.76C127.32,330.89,111.86,331.28,96.41,331.28Zm685.91,22.53c3.94.05,4.07-5,8.29-5.8,2.43-.45.1-5.67-.49-8.74-.34-1.76-1.09-2.63-2.88-2.69-4.26-.17-3.17,4-3.82,5.79-1.25,3.51-.79,7.62-1,11.49,0,3.88-.28,7.78-.08,11.65.18,3.53,4.39,5.44,5.27,3.44,2.16-4.91,6.77-10.15,4.45-15.65C789.43,347.16,785.71,355.33,782.32,353.81ZM79.56,322a9,9,0,0,0,6.75-2c2.39,0,4.76-.58,7.06-.77,6.84-.58,14.36-3.63,19.84,3.93,2.23,3.09,6.28,4.08,9.71,4.16,12.86.31,25.75.19,38.62-.16,4.07-.11,8.68,0,12.76-5.31-13,.65-23.91-2.5-35.46-4.33,1.37-2.95,3.53-2.31,5.58-2.45a77.66,77.66,0,0,1,23.16,2.14c3.11.74,6.45,1.53,7.13-2,.8-4.21-1.77-9.23-5.27-10.3-9.67-3,5.13,4.21-1.22,3.47-.8-.09-2,.78-2.46.45-4.69-3.12-10.89-1.57-17.19-5.29,9.45-2.86,18.42,1.24,27.61-5.13-40.28-4-78.22-11.08-115.84-20-12.69-3-25.88-3.22-38.88-1.59C7.8,278.49,2.07,286.4,4,299.93c1.72,12.38,8.74,19,24,22.21,15.51,3.23,31.36,2.46,47,3.65C77.84,326,79.73,325.39,79.56,322Zm176.29-96.47c-9.72-3.56-20-3.15-30-3.38A14,14,0,0,0,213,230.46c-1.5,3.37-7.93,8.74.69,12.16-2.4,1.3,1.93,4.11-1.26,5.35-9.65,3.77-11.41,9.19-5.55,16.85,1.36,1.77-.24,3.47,0,5,.67,4.91-5.7-.24-5.55,4.25.13,3.76,5.34,3.08,5,6.72-.07.89-.82,2.07-.47,2.6,5.18,7.94-11.67,11.26-4.06,19.6a3.23,3.23,0,0,0-.65.4c-4.17,4.26-3.51,4-2.09,8.41,1.26,3.89,7.46,4.66,6,9.37-2.66,8.7,2.58,7.29,7.66,6.65,2.12-.27,4.47-1.11,6.66.67-2.24,2.79-4.85,2.3-7.1,2.48-7.79.65-11.39,4.17-11.13,12.51.23,7.08,2.7,13.36,5.38,19.43,2.39,5.41.63,7-4.85,7.29,2.64,2,5.82-.31,7.31,3l-4.19.19c1.12,5.62-7.34-2-6.05,4.51,1.13,5.63,4.92,6.24,9.38,6.13,5.67-.14,11.4,1.68,17-.55a5.57,5.57,0,0,1,6.43,2c3.72,7.18,8.43.64,12.45.95,6.86.52,14.45-.91,20.31,2.49,6.69,3.88,13.58,3.25,20.43,4.61,9.39,1.87,19.27-2.89,28,1.83,3.94,2.12,3.29-3.58,5.95-2,5.81,3.38,13.37,3.78,18.9,4.23,10.47.87,21.84,5.29,32.53-.38,1-.54.6,1.38,1,1.93a9.39,9.39,0,0,0,7.15,3.19c8.93.35,18-.47,26.77.8,4.29.63,9.78-1.68,12.1.52,6.63,6.29,15.9-1.23,21.87,5.33,10.17-6.13,20.11,1.64,30,2.05,7.74.32,17.4.77,25.94,3.79,6.23,2.2-1.28-3.36,1.16-4.06,6.65-1,12,12.18,19.54,1.53.05-.07,1.09.28,1.21.6,1.78,4.77,4.93,4.28,8.5,2.31,2.88,5.34,6.74-1.78,10.3.81,1.49,1.08,5.12,6.78,7.07-.27,2.39,1.23,2.72,4.51,7.46,3.62,8.66-1.64,17.86.46,26.63,1.09,18.18,1.3,36.3,3.46,54.55,4.76,32.14,2.29,64.08,7.15,96.14,10.62,5.15.55,11.22,2.25,15.51-3.83-4.12-2.12-8.15-.79-11.94-2.2-3.33-1.25-7.49-.26-11.67-.26.85-3.46,1.62-6.61,4.29-8.94,2.1,2.18-1.76,5,1.22,6.69,2.39.06,1.63-2.33,2.67-3.15,2.37-1.87,0-8,5.17-6.71,3,.74,9.23-.84,7.72,6.39-.27,1.32,2.79,2.37,3.28.72,2.19-7.44,8.42-6.78,15.42-7-6.65-4.22-12.78-4.32-19-5.34l3.23-6.29c3.2,8.78,9.76,4.42,15.23,4.94-6.38-.39-3.43-5.31-4.12-9.05-2.67,2.49-1.47,6.61-6.76,7.06,2.74-4.18,3.7-8-3-6.63-1.15.24-2.59-1-1.63-2.32,1.14-1.56,1.12-4.38,3.93-4.36,1,0,2.77-.79,2.74.93-.09,5.69,5.89,3.81,6,3.17.8-7.35,19.55-.06,11.47-14-.06-.1.33-.47.52-.71,8.44-10.91,8.88-25.21.18-34.22,11.95,5.55,7.42-4.55,8.11-7.77,2.29-10.66-1.93-21.39-.61-32.51.48-4.09,3.94-13.95-5.49-17.23-1.13-.39-1.59-3,1.67-3.31,6.39-.55-.19-3.62.83-5.31,1.92-3.16.67-2.92-2.32-3-4.39-.11-8.74-1.52-13.11-2.37a24.08,24.08,0,0,1,6.86-.66c3.35,0,7.56.35,7.48-4.29-.08-4.46-4.47-3.34-7.13-3.21-16,.8-31.68-2.66-47.32-4.44-20.57-2.33-41.24-2.41-61.74-4.93-12.7-1.56-25.55-1.92-38.26-3.44-19.7-2.35-39.49-3.66-59.1-7.06-17.06-3-34.81-2.21-51.7-4.91-20.26-3.24-40.82-4.36-60.92-8.75-10.67-2.32-14.76-1.24-22.74,2.37-.75.34-2,1.2-2.68-.73-2.66-7.85-10.27-3.95-13.08-2.82-6.78,2.7-12.22,5.26-18.42-.68-1.59-1.52-4.38-2.28-6.7-2.48-9.25-.79-18.77-2.69-27.7-1.23-5.49.9-9.68-.46-14.53-.95-3.49-.35-9.27-2.79-10.64.14-3.34,7.14-4.89,2.42-6.77-.25-1.52-2.17-3.15-3.44-5.88-3.4-6.5.09-13,0-19.82,0,.74,4,2.22,6.26,4.95,6.95,1.05.27,2-6.57,3.73-.55.85,2.91-2.66,2.09-4.61,2.41-5.71.93-11.46-5.11-15.3-3.1-8.39,4.39-16.43.66-25.43,2.05l4.07-6.14C261.7,226.77,258.77,226.2,255.85,225.57ZM860.05,347c3.1-2,7.47.66,10.64-2.65-17.14-4.16-33.09,6.34-49.86,1.6.62,1.33,1.25,1.91,2,2.1,1.86.48,5.16-1,5.11,2.09-.07,3.49-3.64,2.18-5.67,2.27-4.82.22-9.91.92-14.44-.29-9.39-2.51-8.58,4.38-9.59,9.47-.65,3.25.88,6.06,4.47,3.8,3.29-2.07,9.55,2.93,10.31-4.46,5.66,2.59,12,.51,17.73,2.64,13.93,5.22,27.82,10.54,42,15.91-2.62,1.09-4.94.45-7.08-.38-20.3-7.9-42.33-5.25-63.06-10.44-2.76-.69-5.67-1.37-6.45,2.51-.83,4.09,2.47,4.11,5.11,4.63.89.18,1.78.37,2.68.51,26.27,4.35,52.52,8.85,78.83,13,17,2.67,34,6.29,51.41,4.34,6.61-.74,12.85-2.79,15.49-9.42,3.73-9.34,2.1-18.86-3.09-27-5.09-7.94-13.57-10.22-23.16-8.74,6.89,0,11,3.06,11.66,10.21-5.33.05-10-1.52-13.12-6.38-2.53,2.52,2.45,4.84-2.25,7.54,1.57-15.13-13.2-3.62-16.8-11.36,1.32-1.3,3.55,1.25,4.84-1.51-3.68-3.8-9.61-3.15-11.93-1-4.63,4.22-3.88,5-8.27,1-1.21-1.1-4.21-2.75-4-1.64,2,8.83-5.65,3.22-6.35,3.24C871.53,348.73,865.82,347.68,860.05,347ZM186.13,302a2.88,2.88,0,0,0,2.94-1.91c1.51-3,5.33-5.24,3.48-9.44a1.73,1.73,0,0,0-3-.46c-3,2.9-6.32,5.75-4.38,10.68A4.19,4.19,0,0,0,186.13,302Z"/><path class="cls-6" d="M263.77,229.23c-1.42,2.41-5.71.59-6.28,4.25-.72,4.63-5.09,3.84-6.74,2.75-3.39-2.21-1.11-5.25,1-7.46,1.16-1.23,1.84-3.26,4.09-3.2C258.77,226.2,261.7,226.77,263.77,229.23Z"/><path class="cls-7" d="M79.56,322c-4.08-.21-8.61,1.39-13.37-3.77,7.9,0,14.14-1.81,20.12,1.74A9,9,0,0,1,79.56,322Z"/><path class="cls-8" d="M355.08,374.74l91.54,12c-6.43,2.11-12.69-.88-20.21-.68,5.93,7.57,15.07,0,19.71,6.75-5.59-1.1-11.46.47-17.44-1-1.94-.48-8.65-4.92-7.46,3.57l-2.08-.19c-13.54-1.4-26.89-5.16-40.72-3.23a4,4,0,0,1-4.39-2.54c-.71-1.89,1.21-2.43,2-3.58,2.46-3.5,2.68.51,4,1,11.43,4.38,23.32,1.23,35.4,3.16-1.28-6.11-5.43-5.56-8.78-6C389.36,381.68,372,379.79,355.08,374.74Z"/><path class="cls-9" d="M643.32,413.13c-3.09,1.74-.62-7.4-4.92-.92-2.14,3.24-5.5-5.78-7.14.81-2.63-6.75-11,1.88-13.79-5.17-.38-1-3.15-1.05-3.81.6-1.58,3.94-3,4.93-5,.38-.67-1.55-2-3.27-3-1.32-1.8,3.78-1.45,3.88-4.87.53-4.5-4.41-2.06,3.78-6.36,4-2.59-.37,2-6.09-2.13-6.5-4.61-.46-.15,5.12-3.52,5.7-2.8-8.75-2.39-7.24,5.51-9.39,3.82-1,9.29,2,12-3.11.11-.22,1.25-.14,1.73.14,10.13,5.9,21.33.55,31.75,3C647.68,403.75,647,408.31,643.32,413.13Z"/><path class="cls-10" d="M210.35,363.52c10.41-.87,20.36,2,30.54.27,2.48-.42,6.73,2.41,8.27,6.17-2.88.4,4.77,7.28-3.77,5.28-7.42-1.75-15.57-.06-23.41-.18C213,374.94,212.56,369.15,210.35,363.52Z"/><path class="cls-11" d="M656,415.34c-1.09-2.47-2.12-4.82-3.15-7.17,12.92-2.86,24.81,2,37,5-7-1.64-14.37,1.65-21.22-2-1.38-.73-2.89.07-3.56,1.8-.53,1.33-.68,3-2.67.71C658.48,409.22,658.31,409.37,656,415.34Z"/><path class="cls-12" d="M217,347.46c17.66,1.69,31.44,10,47.09,8C248,359.45,233.74,354,217,347.46Z"/><path class="cls-13" d="M481.16,394.9a46.87,46.87,0,0,0,23.49-4.22C498,399.31,489.3,395.46,481.16,394.9Z"/><path class="cls-14" d="M713.77,429.31c1.23-5.2,7-11.93-6.09-12.65,8.25-1.63,11.61-1.39,11.47.09-.42,4.42-1.59,8.76-2.46,13.13Z"/><path class="cls-15" d="M37.58,315c-5.29,2.71-10.21-6.63-15.77,1.35C20,318.89,7.7,304.63,9.29,299.79s2.61-9.8,7-13.45c2.17,3.75.46,7.62.8,11.3.09.94.48,3.07-1.38,1.14-1.35-1.41-2.24-4.56-3.26-.21-.43,1.84-.17,5.46,3.71,4.07,4.18-1.51,5.6.38,5.82,4.09.16,2.79,1.42,3.47,4.13,3.08C30.76,309.14,34.2,311.71,37.58,315Z"/></g></g></svg>